<svg width="37" height="36" viewBox="0 0 37 36" fill="none" xmlns="http://www.w3.org/2000/svg">
<path d="M20.2245 22.9602L19.3866 22.1011C19.2663 21.9779 19.1032 21.9086 18.9331 21.9086H17.9161L15.5389 19.4715C15.4186 19.3482 15.2555 19.2789 15.0854 19.2789H12.1446L11.5033 21.2512V22.566C11.5033 22.9798 11.6934 23.3695 12.0163 23.6179L13.5553 24.8012C13.8783 25.0495 14.0683 25.4392 14.0683 25.853V29.3993C14.0683 29.6589 14.1434 29.9126 14.2838 30.1286L15.351 31.7697H15.9923V29.7974L17.9161 27.8252L18.4113 26.3025C18.4986 26.034 18.7437 25.853 19.0196 25.853H19.3393C19.6336 25.853 19.8901 25.6476 19.9615 25.355L20.3933 23.5844C20.4478 23.3605 20.3837 23.1235 20.2245 22.9602Z" fill="white"/>
<path d="M17.9163 34.3989C26.0623 34.3989 32.6659 27.6293 32.6659 19.2786C32.6659 10.9279 26.0623 4.15833 17.9163 4.15833C9.77036 4.15833 3.16675 10.9279 3.16675 19.2786C3.16675 27.6293 9.77036 34.3989 17.9163 34.3989Z" fill="#2E65F3"/>
<path d="M25.0368 29.7061C16.8908 29.7061 10.2872 22.9364 10.2872 14.5858C10.2872 10.8273 11.6279 7.39192 13.8418 4.74707C7.67847 6.56017 3.16675 12.3772 3.16675 19.2784C3.16675 27.6291 9.77039 34.3987 17.9163 34.3987C22.3959 34.3987 26.4061 32.3488 29.1113 29.1171C27.8166 29.4979 26.4508 29.7061 25.0368 29.7061Z" fill="#2E65F3"/>
<path d="M11.6247 20.8769L11.5031 21.2509V22.5657C11.5031 22.9796 11.6931 23.3692 12.0161 23.6176L13.5551 24.8009C13.8781 25.0492 14.0681 25.4389 14.0681 25.8528V29.399C14.0681 29.6586 14.1431 29.9124 14.2836 30.1283L15.3507 31.7694H15.992V29.7972L17.9137 27.8272C15.1576 26.2657 12.9433 23.8262 11.6247 20.8769Z" fill="#C7CFE2"/>
<path d="M13.8354 7.56515L12.786 8.1031V7.44569H11.3934C11.0532 7.44569 10.727 7.58423 10.4865 7.83075L9.57953 8.76051L8.49368 7.64737C6.81483 9.07827 5.45309 10.8849 4.52576 12.9402L5.43951 15.7504C5.61413 16.2873 6.10411 16.6494 6.65623 16.6494H7.01436L7.65565 17.9642L9.57953 18.3586V17.3067C9.57953 16.5805 10.1538 15.9919 10.8621 15.9919H11.8791C12.0492 15.9919 12.2122 15.9226 12.3325 15.7993L16.6337 11.39H17.9163V10.0752L16.8045 9.31532C16.4926 9.10217 16.5757 8.61092 16.9392 8.51765L18.5575 8.10303V7.44562H14.3292C14.1578 7.44562 13.9887 7.48658 13.8354 7.56515Z" fill="#E4EAF6"/>
<path d="M9.57957 18.3584V17.3066C9.57957 16.7629 9.90165 16.2965 10.3606 16.0963C10.3125 15.5996 10.2872 15.096 10.2872 14.5863C10.2872 11.9998 10.9341 9.57368 12.0517 7.44562H11.3934C11.0532 7.44562 10.727 7.58416 10.4865 7.83068L9.5795 8.76044L8.49932 7.65311C8.25562 7.8606 8.01571 8.07254 7.78559 8.29545C7.75193 8.3281 7.71987 8.36232 7.68649 8.39532C7.46407 8.61501 7.24921 8.8428 7.0403 9.07634C6.98515 9.13811 6.92944 9.19924 6.87534 9.26194C6.64627 9.52697 6.4242 9.79861 6.21347 10.0798C6.17855 10.1263 6.14677 10.1753 6.11248 10.2223C5.94248 10.4545 5.77997 10.6926 5.62292 10.935C5.55433 11.0412 5.48679 11.1485 5.42066 11.2566C5.29013 11.4696 5.1659 11.6869 5.04573 11.9068C4.98737 12.0137 4.92697 12.119 4.87098 12.2276C4.74934 12.4634 4.63785 12.7053 4.52832 12.9483L5.43941 15.7503C5.61403 16.2872 6.10401 16.6493 6.65614 16.6493H7.01426L7.65555 17.9641L9.57957 18.3584Z" fill="#C7CFE2"/>
<path d="M17.9161 3.54248C9.45175 3.54248 2.56537 10.6019 2.56537 19.2791C2.56537 27.9562 9.45175 35.0157 17.9161 35.0157C26.3805 35.0157 33.2669 27.9562 33.2669 19.2791C33.2669 10.6019 26.3805 3.54248 17.9161 3.54248ZM28.818 14.2055C29.114 14.2055 29.3595 13.986 29.4094 13.6972L29.6286 13.8096C29.8446 13.9203 30.0863 13.9788 30.3277 13.9788H31.0862C31.1797 14.2221 31.2664 14.4689 31.3472 14.7184H30.4033C30.1124 14.7184 29.821 14.7889 29.5609 14.9221L29.2148 15.0996C28.9966 15.2113 28.7351 15.1946 28.5321 15.056L27.2275 14.1644C27.1288 14.097 27.0126 14.0609 26.894 14.0609H26.7348L27.1801 13.3762C27.2025 13.3418 27.2398 13.3213 27.2801 13.3213H28.2166V13.5892C28.2168 13.9296 28.4859 14.2055 28.818 14.2055ZM28.1294 9.25225L27.7515 9.63961C27.5167 9.88032 27.5167 10.2705 27.7515 10.5112C27.8689 10.6315 28.0228 10.6917 28.1766 10.6917C28.3304 10.6917 28.4843 10.6316 28.6017 10.5112L28.9249 10.1799C29.5486 10.9713 30.0931 11.8308 30.5455 12.7462H30.3275C30.2718 12.7462 30.216 12.7326 30.1661 12.7071L29.2389 12.2318C29.0563 12.1382 28.8518 12.0887 28.6475 12.0887H27.2801C26.8368 12.0887 26.4254 12.3145 26.1795 12.6925L25.2898 14.061H24.7299C24.4867 14.061 24.289 13.8582 24.289 13.609V12.5215C24.289 12.5039 24.3 12.4882 24.3165 12.4826L25.4895 12.0817C25.7819 11.9818 26.0517 11.8109 26.2697 11.5874C26.6467 11.201 26.8542 10.6873 26.8542 10.1408V9.03307C26.8542 9.02231 26.8585 9.01169 26.8659 9.00401L27.3193 8.53917C27.3344 8.52367 27.3486 8.50746 27.3618 8.49067C27.6267 8.73461 27.8829 8.98852 28.1294 9.25225ZM8.47053 8.49053C8.48376 8.50724 8.49776 8.52339 8.51302 8.53895L9.15431 9.19636C9.26699 9.31202 9.41998 9.37688 9.57941 9.37688C9.73884 9.37688 9.89176 9.31195 10.0045 9.19636L10.9113 8.26661C11.04 8.13474 11.2112 8.06206 11.3932 8.06206H12.1846V8.10317C12.1846 8.31676 12.2925 8.51513 12.4697 8.62742C12.6469 8.73977 12.8683 8.74996 13.0547 8.65439L14.104 8.11644C14.1735 8.08086 14.2513 8.06206 14.329 8.06206H16.4738C16.2392 8.21882 16.0762 8.46886 16.0259 8.76653C15.9552 9.18553 16.1256 9.5924 16.4708 9.8283L17.297 10.393C17.3082 10.4007 17.3148 10.4134 17.3148 10.4272V10.7328C17.3148 10.7555 17.2968 10.7739 17.2747 10.7739H16.9986C16.6025 10.7739 16.2301 10.932 15.9499 11.2192L11.907 15.3637C11.8996 15.3713 11.8893 15.3756 11.8787 15.3756H10.8619C9.82318 15.3756 8.97815 16.2419 8.97815 17.3068V17.6069L8.31166 17.4702C8.15279 17.4376 8.02017 17.3337 7.94773 17.1853L7.55188 16.3738C7.45005 16.165 7.24191 16.0331 7.01417 16.0331H6.65605C6.36231 16.0331 6.10252 15.8411 6.00972 15.5554L5.1726 12.981C5.98011 11.2709 7.10613 9.7473 8.47053 8.49053ZM17.9161 33.783C10.1147 33.783 3.76782 27.2765 3.76782 19.279C3.76782 17.6949 4.01767 16.1697 4.47763 14.7416L4.869 15.9452C5.12438 16.7308 5.83608 17.2599 6.64261 17.2657L6.87224 17.7365C7.11173 18.2277 7.55041 18.5711 8.07574 18.6789L10.3684 19.1489C10.4974 19.1753 10.6146 19.2396 10.7075 19.335C10.894 19.5262 11.1132 19.672 11.3521 19.7669L10.9329 21.0563C10.9125 21.1191 10.902 21.1849 10.902 21.2512V22.566C10.902 23.1706 11.1837 23.7482 11.6555 24.111L13.1946 25.2943C13.3652 25.4254 13.4671 25.6343 13.4671 25.853V29.3993C13.4671 29.7819 13.5765 30.1523 13.7835 30.4705L14.7079 31.892C14.9091 32.2013 15.2456 32.386 15.6083 32.386H15.8319C16.2517 32.386 16.5934 32.0357 16.5934 31.6053V30.4783C16.5934 30.2039 16.6976 29.9459 16.8868 29.7519L18.0735 28.5354C18.3143 28.2886 18.4984 27.9832 18.6061 27.652L18.9816 26.4974C18.9871 26.4805 19.0024 26.4693 19.0196 26.4693H19.3393C19.9106 26.4693 20.4063 26.0725 20.5447 25.5044L20.9765 23.7338C21.0817 23.3023 20.9565 22.8388 20.6496 22.5244L19.8116 21.6653C19.577 21.4248 19.2649 21.2922 18.9331 21.2922H18.1651L15.9638 19.0356C15.7292 18.7951 15.4172 18.6626 15.0853 18.6626H12.1585C12.1491 18.6623 12.1398 18.6623 12.1304 18.6626H12.0271C11.8499 18.6626 11.6832 18.5918 11.5579 18.4632C11.2965 18.1953 10.9668 18.0144 10.6043 17.9401L10.1807 17.8533V17.3068C10.1807 16.9217 10.4863 16.6083 10.8621 16.6083H11.5435V16.6494C11.5435 16.9898 11.8126 17.2657 12.1446 17.2657C12.4767 17.2657 12.7458 16.9898 12.7458 16.6494V16.2461C12.7496 16.2423 12.7537 16.239 12.7575 16.2353L16.8004 12.0908C16.8534 12.0365 16.9239 12.0066 16.9988 12.0066H17.2749C17.96 12.0066 18.5174 11.4352 18.5174 10.7329V10.4272C18.5174 10.0004 18.3105 9.60417 17.9641 9.36748L17.4567 9.02059L18.4306 8.77091C18.8593 8.66114 19.1587 8.26811 19.1587 7.81475C19.1587 7.27149 18.7275 6.82946 18.1976 6.82946H14.3292C14.0657 6.82946 13.8019 6.89324 13.5664 7.01399L13.1691 7.21761C12.9854 6.9812 12.7022 6.82939 12.3851 6.82939H11.3933C10.8901 6.82939 10.417 7.0302 10.0612 7.39503L9.57941 7.88893L9.39968 7.70476C11.7707 5.86684 14.7212 4.77508 17.9161 4.77508C21.1111 4.77508 24.0616 5.86684 26.4325 7.70476L26.0155 8.13223C25.7807 8.37286 25.6515 8.69264 25.6515 9.03286V10.1405C25.6515 10.3578 25.569 10.5621 25.4192 10.7157C25.3325 10.8045 25.2254 10.8724 25.1091 10.9122L23.936 11.313C23.4279 11.4866 23.0864 11.9722 23.0864 12.5214V13.6089C23.0864 13.9194 23.1702 14.2097 23.3138 14.4597C23.0699 14.6281 22.856 14.8447 22.6877 15.1037L22.1202 15.9762C21.9132 16.2944 21.8038 16.6649 21.8038 17.0474V18.2234C21.8038 18.6059 21.9132 18.9764 22.1202 19.2946L22.8066 20.3501C23.1568 20.8886 23.7428 21.21 24.374 21.21H25.9696C26.2634 21.21 26.5231 21.4019 26.6159 21.6877L26.7592 22.1283C26.8752 22.485 26.9341 22.8565 26.9341 23.2327V23.698C26.9341 24.3126 27.0175 24.9241 27.1824 25.5153L28.2133 29.2145C25.6314 32.0251 21.9705 33.783 17.9161 33.783ZM13.9161 24.3082L12.377 23.1249C12.2064 22.9937 12.1045 22.7847 12.1045 22.5661V21.3513L12.5779 19.8954H15.0854C15.0959 19.8954 15.1063 19.8998 15.1137 19.9074L17.491 22.3445C17.6037 22.4601 17.7567 22.525 17.9161 22.525H18.9331C18.9436 22.525 18.954 22.5294 18.9614 22.537L19.7994 23.3961C19.8094 23.4063 19.8134 23.4212 19.81 23.4351L19.3782 25.2057C19.3737 25.224 19.3577 25.2367 19.3393 25.2367H19.0196C18.484 25.2367 18.0103 25.5867 17.8408 26.1077L17.4654 27.2624C17.4164 27.4129 17.3327 27.5518 17.2233 27.6639L16.0366 28.8804C15.6202 29.3072 15.3909 29.8748 15.3909 30.4784V30.7204L14.7839 29.7869C14.709 29.6719 14.6695 29.5378 14.6695 29.3995V25.8532C14.6696 25.2484 14.3879 24.6708 13.9161 24.3082ZM29.1494 28.0859L28.3386 25.1768C28.2046 24.6958 28.1366 24.1982 28.1366 23.6981V23.2328C28.1366 22.724 28.057 22.2212 27.9001 21.7385L27.7568 21.2979C27.5 20.5082 26.7818 19.9775 25.9697 19.9775H24.3741C24.1458 19.9775 23.9339 19.8612 23.8072 19.6665L23.1208 18.611C23.0459 18.4958 23.0063 18.3619 23.0063 18.2235V17.0475C23.0063 16.9091 23.0459 16.7752 23.1208 16.6601L23.6883 15.7876C23.8894 15.4783 24.226 15.2936 24.5886 15.2936H26.7121L27.8652 16.0816C28.4262 16.465 29.1495 16.5112 29.7526 16.2021L30.0986 16.0247C30.1927 15.9764 30.2981 15.951 30.4033 15.951H31.6881C31.9339 17.0201 32.0645 18.1342 32.0645 19.2791C32.0645 22.5887 30.9766 25.6425 29.1494 28.0859Z" fill="black"/>
<path d="M5.31112 7.23337C5.42765 7.34917 5.57966 7.407 5.73174 7.407C5.88382 7.407 6.0357 7.3491 6.15236 7.23337C6.15691 7.22885 6.16139 7.22426 6.1658 7.2196C6.39172 6.98061 6.39172 6.59627 6.1658 6.35735C6.16363 6.35498 6.16139 6.35269 6.15915 6.35039C5.92435 6.10968 5.53921 6.10968 5.3044 6.35039C5.06959 6.5911 5.06959 6.98592 5.3044 7.22663C5.3065 7.22885 5.30888 7.23115 5.31112 7.23337Z" fill="white"/>
<path d="M6.33291 4.15878C6.33291 3.81842 6.06374 3.54248 5.73173 3.54248C3.98583 3.54248 2.56537 4.99864 2.56537 6.78842C2.56537 7.12878 2.83454 7.40472 3.16656 7.40472C3.49858 7.40472 3.76775 7.12878 3.76775 6.78842C3.76775 5.67829 4.64881 4.77515 5.73166 4.77515C6.06374 4.77508 6.33291 4.49914 6.33291 4.15878Z" fill="white"/>
<path d="M6.33271 1.52896C6.33271 1.18859 6.06354 0.912659 5.73152 0.912659C2.57119 0.912659 0 3.54847 0 6.78817C0 7.12853 0.26917 7.40447 0.601189 7.40447C0.933208 7.40447 1.20238 7.12853 1.20238 6.78817C1.20238 4.22805 3.2341 2.14526 5.73145 2.14526C6.06354 2.14526 6.33271 1.86932 6.33271 1.52896Z" fill="white"/>
<path d="M30.8411 29.8176C30.9585 29.9379 31.1135 29.9981 31.2685 29.9981C31.4235 29.9981 31.5785 29.938 31.6959 29.8176C31.9307 29.5769 31.9307 29.1821 31.6959 28.9414C31.6937 28.9391 31.6915 28.9368 31.6891 28.9346C31.456 28.7031 31.0811 28.7031 30.848 28.9346C30.8435 28.9391 30.839 28.9437 30.8346 28.9484C30.6087 29.1873 30.6087 29.5717 30.8346 29.8106C30.8366 29.813 30.8389 29.8153 30.8411 29.8176Z" fill="white"/>
<path d="M33.8336 28.7631C33.5016 28.7631 33.2325 29.039 33.2325 29.3794C33.2325 30.4895 32.3514 31.3926 31.2685 31.3926C30.9365 31.3926 30.6674 31.6686 30.6674 32.0089C30.6674 32.3493 30.9365 32.6252 31.2685 32.6252C33.0144 32.6252 34.4349 31.1691 34.4349 29.3793C34.4348 29.0389 34.1657 28.7631 33.8336 28.7631Z" fill="white"/>
<path d="M36.3988 28.7631C36.0668 28.7631 35.7976 29.039 35.7976 29.3794C35.7976 31.9395 33.7659 34.0223 31.2685 34.0223C30.9365 34.0223 30.6674 34.2982 30.6674 34.6386C30.6674 34.9789 30.9365 35.2549 31.2685 35.2549C34.4288 35.2549 37 32.6191 37 29.3794C37 29.0389 36.7308 28.7631 36.3988 28.7631Z" fill="white"/>
<path d="M13.4275 10.6913C13.5179 10.6913 13.6095 10.6704 13.6959 10.6262L14.9785 9.96879C15.2755 9.81662 15.3959 9.44641 15.2474 9.14192C15.0989 8.83743 14.7378 8.71395 14.4408 8.86627L13.1582 9.52368C12.8612 9.67585 12.7408 10.0461 12.8893 10.3506C12.9946 10.5665 13.2069 10.6913 13.4275 10.6913Z" fill="black"/>
<path d="M24.3289 10.0341C24.6609 10.0341 24.93 9.75812 24.93 9.41775V8.76034C24.93 8.41998 24.6609 8.14404 24.3289 8.14404C23.9968 8.14404 23.7277 8.41998 23.7277 8.76034V9.41775C23.7276 9.75812 23.9967 10.0341 24.3289 10.0341Z" fill="black"/>
<path d="M32.1554 15.3344H30.4034C30.2043 15.3344 30.0079 15.3819 29.8298 15.4733L29.4838 15.6507C29.0722 15.8616 28.5817 15.8304 28.1988 15.5687L26.8941 14.6771H25.6116L26.8941 12.7049H28.818L30.1006 13.3623H31.4929C30.5665 11.1313 29.1321 9.17575 27.3388 7.64734L26.4408 8.56799C26.3205 8.69125 26.2529 8.85849 26.2529 9.03283V10.1405C26.2529 10.5197 26.106 10.8834 25.8444 11.1514C25.6913 11.3084 25.5047 11.4266 25.2992 11.4968L24.1262 11.8976C23.8643 11.9871 23.6877 12.2383 23.6877 12.5213V14.677L22.6205 16.318C22.4801 16.534 22.405 16.7877 22.405 17.0473V18.2233C22.405 18.4829 22.4801 18.7366 22.6205 18.9526L23.307 20.0081C23.5448 20.3738 23.9453 20.5936 24.3741 20.5936H25.9697C26.5218 20.5936 27.0119 20.9558 27.1864 21.4926L27.4695 22.3633C27.5131 22.4973 27.5353 22.6378 27.5353 22.7791V24.538L29.0484 29.1915C31.2996 26.5369 32.6656 23.0725 32.6656 19.2788C32.6656 17.9138 32.4862 16.5923 32.1554 15.3344Z" fill="#E4EAF6"/>
<path d="M14.5 21.5L17 24.5C14.8333 23.8333 11.3 22.5 14.5 22.5C17.7 22.5 15.8333 22.8333 14.5 23L17.5 23.5H18" stroke="black"/>
<path d="M15.5 25C15.5 26.2 15.8334 25.8333 16 25.5C15.5 24.6667 14.1496 23.9936 15.5 24.5C19.1421 25.8658 15.7373 26.4025 15.8537 26.4877M16 26.5C15.9106 26.5 15.8651 26.496 15.8537 26.4877M14 21.5L13 22C13 22.5 13.1 23 13.5 21C14 18.5 18 24.5 17 26.5C16.2 28.1 17 25.8333 17.5 24.5C17.3485 24.0455 17.3072 23.3431 18.2022 23.8199M14 21.5V21M14 21.5L16.5 22H17L17.5 23H18H19L19.5 23.5L18.2022 23.8199M18.2022 23.8199C18.2918 23.8676 18.3908 23.9272 18.5 24C20 25 19 23.5 18 24.5V25M18.5 25H19H19.5L18 25.5L17.5 26V26.5V27L15.8537 26.4877M15 25.5L14.5 25L14 24.5L13.5 24L13 23.5L12.5 22H12L12.5 20H14H15L16.5 21.5L13 20.5V21.5L16.5 25.5L14.5 24L15.75 23.25L17 22.5" stroke="#C7CFE2"/>
<path d="M16 24C16.5 24.3333 17.3 24.8 16.5 24C15.7 23.2 15.1667 22.6667 15 22.5L14.5 22H14V23.5L13.5 23V22.5L17 23" stroke="#C7CFE2"/>
</svg>
