<svg width="160" height="60" viewBox="0 0 160 60" fill="none" xmlns="http://www.w3.org/2000/svg">
<g clip-path="url(#clip0_23_2)">
<path d="M53.234 17.1648C53.2762 17.2492 53.2973 17.5446 53.2973 18.0509C53.3184 18.5572 53.3184 19.169 53.2973 19.8863C53.2973 20.6036 53.2762 21.3736 53.234 22.1964C53.1918 22.9981 53.139 23.7576 53.0758 24.4749C53.0336 24.8757 52.9597 25.477 52.8542 26.2786C52.7699 27.0803 52.6644 27.9664 52.5378 28.9368C52.4112 29.9073 52.2741 30.9094 52.1264 31.9431C51.9998 32.9558 51.8732 33.8946 51.7467 34.7595C51.6201 35.6034 51.504 36.3102 51.3986 36.8798C51.3142 37.4494 51.2509 37.7553 51.2087 37.7975C51.1243 37.8608 50.9872 38.019 50.7973 38.2722C50.6074 38.5042 50.3965 38.7468 50.1644 39C49.9534 39.2321 49.753 39.4219 49.5631 39.5696C49.3733 39.7173 49.2467 39.7384 49.1834 39.6329C49.1412 39.4219 49.1201 38.7679 49.1201 37.6709C49.1201 37.2068 49.1201 36.6266 49.1201 35.9304C49.1412 35.2131 49.1623 34.3482 49.1834 33.3355C49.2256 32.3229 49.2783 31.1414 49.3416 29.7912C49.4049 28.4411 49.4788 26.8799 49.5631 25.1078C49.1412 26.5423 48.7615 27.8082 48.4239 28.9052C48.1075 30.0022 47.8227 30.9621 47.5695 31.7849C47.3374 32.5866 47.137 33.2722 46.9682 33.8418C46.7995 34.3904 46.6518 34.8439 46.5252 35.2026C46.2509 36.0464 46.0716 36.5422 45.9872 36.6899C45.9028 36.711 45.7657 36.6477 45.5758 36.5C45.4071 36.3524 45.2067 36.1414 44.9746 35.8671C44.7636 35.5718 44.5421 35.2237 44.31 34.8228C44.0991 34.422 43.9197 33.979 43.7721 33.4937C43.6244 33.0507 43.4345 32.46 43.2025 31.7216C42.9915 31.0887 42.7172 30.2659 42.3797 29.2533C42.0421 28.2195 41.6307 26.9326 41.1455 25.3926C41.2721 27.1225 41.3776 28.6415 41.462 29.9495C41.5464 31.2575 41.6096 32.3967 41.6518 33.3672C41.7151 34.3376 41.7573 35.1604 41.7784 35.8355C41.8206 36.4895 41.8417 37.038 41.8417 37.481C41.8628 38.4937 41.8312 39.0738 41.7468 39.2215C41.5358 39.2215 41.3037 39.1266 41.0506 38.9367C40.8185 38.7257 40.5865 38.4831 40.3544 38.2089C40.1434 37.9135 39.9536 37.6287 39.7848 37.3545C39.6371 37.0802 39.5527 36.8798 39.5316 36.7532C39.5105 36.6688 39.4472 36.2785 39.3417 35.5823C39.2363 34.8861 39.1097 34.0001 38.962 32.9241C38.8354 31.8271 38.6877 30.6035 38.519 29.2533C38.3713 27.882 38.2236 26.4896 38.0759 25.0761C37.9494 23.6626 37.8439 22.2913 37.7595 20.9622C37.6751 19.612 37.6329 18.4095 37.6329 17.3547C37.6329 17.1859 37.8439 16.9644 38.2658 16.6901C38.6877 16.3948 39.1624 16.1205 39.6898 15.8674C40.2384 15.5931 40.7447 15.361 41.2088 15.1712C41.6729 14.9602 41.9577 14.8547 42.0632 14.8547C42.1476 14.8547 42.232 15.0973 42.3164 15.5826C42.4219 16.0678 42.5379 16.6796 42.6645 17.418C42.7911 18.1564 42.9282 18.9791 43.0759 19.8863C43.2236 20.7935 43.3923 21.6584 43.5822 22.4812C43.7299 23.3251 43.9092 24.2006 44.1202 25.1078C44.2889 25.8883 44.4788 26.7533 44.6898 27.7027C44.9218 28.6309 45.175 29.5381 45.4493 30.4242C45.7446 29.1372 46.0083 27.9769 46.2404 26.9432C46.4936 25.8883 46.7151 24.9917 46.9049 24.2533C47.137 23.3884 47.3374 22.6183 47.5062 21.9432C47.8859 20.2977 48.2551 19.0002 48.6138 18.0509C48.9935 17.1015 49.2361 16.5425 49.3416 16.3737C49.4049 16.2893 49.6264 16.2682 50.0062 16.3104C50.407 16.3526 50.8395 16.4264 51.3036 16.5319C51.7678 16.6163 52.1897 16.7218 52.5694 16.8484C52.9703 16.9749 53.1918 17.0804 53.234 17.1648ZM61.9048 22.0698C61.947 22.1331 62.0102 22.4285 62.0946 22.9559C62.179 23.4833 62.2634 24.1373 62.3478 24.9179C62.4533 25.6985 62.5482 26.5423 62.6326 27.4495C62.7381 28.3567 62.833 29.2216 62.9174 30.0444C63.0229 30.8672 63.1073 31.6056 63.1706 32.2596C63.2339 32.9136 63.2866 33.3566 63.3288 33.5887C63.3921 33.9684 63.4659 34.3904 63.5503 34.8545C63.6347 35.2975 63.7085 35.73 63.7718 36.1519C63.8351 36.5528 63.8773 36.9009 63.8984 37.1962C63.9406 37.4916 63.9301 37.6709 63.8668 37.7342C63.8246 37.7975 63.6558 37.8186 63.3604 37.7975C63.0651 37.7553 62.7381 37.692 62.3794 37.6076C62.0419 37.5021 61.7149 37.3861 61.3984 37.2595C61.1031 37.1118 60.9132 36.9747 60.8288 36.8481C60.7444 36.7426 60.6601 36.5844 60.5757 36.3734C60.5124 36.1625 60.428 35.7933 60.3225 35.2659C60.0904 35.5823 59.8373 35.9199 59.563 36.2785C59.3099 36.6161 59.0567 36.9325 58.8035 37.2279C58.5504 37.5021 58.3183 37.7236 58.1073 37.8924C57.8964 38.0612 57.7381 38.1456 57.6327 38.1456C57.4639 38.1456 57.2107 37.9768 56.8732 37.6393C56.5356 37.2806 56.1981 36.8798 55.8605 36.4367C55.523 35.9937 55.2171 35.5718 54.9428 35.1709C54.6686 34.7701 54.5209 34.5064 54.4998 34.3798C54.4576 34.2532 54.4365 33.9051 54.4365 33.3355C54.4576 32.7659 54.4787 32.133 54.4998 31.4368C54.542 30.7195 54.5842 30.0128 54.6264 29.3166C54.6686 28.5993 54.7108 28.0297 54.753 27.6077C54.7951 27.1858 54.8373 26.7217 54.8795 26.2153C54.9428 25.6879 55.0061 25.2027 55.0694 24.7597C55.1327 24.2955 55.1854 23.8947 55.2276 23.5571C55.2909 23.2196 55.3437 23.0192 55.3859 22.9559C55.428 22.8926 55.5441 22.861 55.734 22.861C55.9449 22.8399 56.1559 22.8504 56.3669 22.8926C56.5989 22.9137 56.8099 22.9664 56.9998 23.0508C57.1896 23.1141 57.3162 23.1985 57.3795 23.304C57.4217 23.3884 57.4428 23.6626 57.4428 24.1268C57.4639 24.5698 57.4744 25.1183 57.4744 25.7723C57.4744 26.4052 57.4744 27.1014 57.4744 27.8609C57.4744 28.5993 57.4639 29.2955 57.4428 29.9495C57.4428 30.5824 57.4322 31.1309 57.4111 31.595C57.4111 32.0381 57.4111 32.3018 57.4111 32.3862C57.4111 32.5549 57.5061 32.8819 57.696 33.3672C57.9069 33.8524 58.1179 34.3165 58.3289 34.7595L59.9744 32.7975C59.9533 32.4178 59.9322 31.9326 59.9111 31.3419C59.9111 30.7512 59.9006 30.1288 59.8795 29.4748C59.8584 28.8208 59.8373 28.1562 59.8162 27.4812C59.7951 26.8061 59.7845 26.1942 59.7845 25.6457C59.7845 25.0972 59.7845 24.6436 59.7845 24.285C59.7845 23.9263 59.7951 23.7154 59.8162 23.6521C59.8795 23.5255 60.0061 23.3567 60.1959 23.1458C60.3858 22.9348 60.5968 22.7344 60.8288 22.5445C61.0609 22.3546 61.2719 22.207 61.4617 22.1015C61.6727 21.996 61.8204 21.9854 61.9048 22.0698ZM74.1515 25.7407C74.1515 26.0782 74.1093 26.5634 74.0249 27.1963C73.9616 27.8292 73.8666 28.5254 73.7401 29.2849C73.6135 30.0233 73.4764 30.7933 73.3287 31.595C73.2021 32.3756 73.065 33.0929 72.9173 33.7469C72.7907 34.4009 72.6747 34.9494 72.5692 35.3924C72.4848 35.8355 72.4321 36.0781 72.411 36.1203C72.3688 36.1836 72.2527 36.2258 72.0629 36.2469C71.8941 36.2469 71.6937 36.2258 71.4616 36.1836C71.2506 36.1414 71.0502 36.0781 70.8604 35.9937C70.6916 35.9093 70.5861 35.8038 70.5439 35.6773C70.5228 35.5929 70.5123 35.2975 70.5123 34.7912C70.5334 34.2849 70.5545 33.6836 70.5755 32.9874C70.6177 32.2701 70.6599 31.5106 70.7021 30.709C70.7443 29.8862 70.7865 29.1267 70.8287 28.4305C70.892 27.7132 70.9342 27.1014 70.9553 26.5951C70.9975 26.0888 71.0186 25.7829 71.0186 25.6774C71.0186 25.2976 70.9764 24.939 70.892 24.6014C70.8287 24.2428 70.7443 23.9369 70.6388 23.6837C70.5334 23.4306 70.4068 23.2407 70.2591 23.1141C70.1325 22.9664 70.0165 22.9137 69.911 22.9559C69.6367 22.9981 69.4047 23.0719 69.2148 23.1774C69.0249 23.2618 68.8667 23.3567 68.7401 23.4622C68.5924 23.5888 68.4764 23.7365 68.392 23.9052C68.3709 23.9474 68.3287 24.074 68.2654 24.285C68.2233 24.496 68.2022 24.7386 68.2022 25.0128C68.2022 25.0972 68.2022 25.4031 68.2022 25.9305C68.2022 26.4369 68.1916 27.0487 68.1705 27.766C68.1705 28.4832 68.16 29.2638 68.1389 30.1077C68.1389 30.9305 68.1283 31.7005 68.1072 32.4178C68.1072 33.114 68.0967 33.7153 68.0756 34.2216C68.0545 34.7279 68.0334 35.0127 68.0123 35.076C67.9701 35.2026 67.8646 35.3819 67.6958 35.614C67.5271 35.8249 67.3372 36.0254 67.1262 36.2152C66.9153 36.4051 66.7148 36.5528 66.525 36.6583C66.3351 36.7426 66.2085 36.7215 66.1452 36.595C66.0819 36.5317 66.0186 36.2258 65.9553 35.6773C65.8921 35.1076 65.8182 34.422 65.7338 33.6203C65.6705 32.7975 65.5967 31.9115 65.5123 30.9621C65.4279 29.9917 65.3541 29.0634 65.2908 28.1773C65.2275 27.2913 65.1748 26.4896 65.1326 25.7723C65.0904 25.055 65.0587 24.5381 65.0376 24.2217C65.0165 23.7787 64.9954 23.2829 64.9743 22.7344C64.9533 22.1648 64.9322 21.6373 64.9111 21.1521C64.9111 20.6458 64.9111 20.2133 64.9111 19.8547C64.9322 19.4749 64.9743 19.2429 65.0376 19.1585C65.0798 19.0741 65.217 19.053 65.449 19.0952C65.7022 19.1374 65.9659 19.2218 66.2402 19.3483C66.5355 19.4538 66.8098 19.591 67.0629 19.7597C67.3161 19.9074 67.4849 20.0551 67.5693 20.2028C67.6114 20.3293 67.6642 20.477 67.7275 20.6458C67.7908 20.7935 67.8435 21.0466 67.8857 21.4053C68.2444 21.1943 68.6346 21.0044 69.0566 20.8357C69.4785 20.6458 69.8899 20.5087 70.2907 20.4243C70.7127 20.3188 71.1135 20.2871 71.4933 20.3293C71.873 20.3504 72.2105 20.4559 72.5059 20.6458C72.6958 20.7935 72.8856 21.0466 73.0755 21.4053C73.2865 21.7639 73.4658 22.1859 73.6135 22.6711C73.7823 23.1563 73.9088 23.6732 73.9932 24.2217C74.0987 24.7491 74.1515 25.2554 74.1515 25.7407ZM84.8792 18.0509C84.9425 18.5572 84.9636 19.5699 84.9425 21.0888C84.9425 21.7428 84.9214 22.534 84.8792 23.4622C84.8581 24.3905 84.8159 25.5086 84.7526 26.8166C84.6893 28.1035 84.6049 29.6014 84.4994 31.3102C84.415 32.998 84.299 34.9178 84.1513 37.0696C84.1091 37.2806 84.0142 37.5127 83.8665 37.7658C83.7399 38.019 83.5923 38.2511 83.4235 38.462C83.2547 38.673 83.0754 38.8523 82.8855 39C82.6957 39.1266 82.5269 39.1688 82.3792 39.1266C82.337 39.1055 82.2843 38.9367 82.221 38.6203C82.1788 38.3038 82.1366 37.8608 82.0944 37.2912C81.145 37.7131 80.2484 37.9979 79.4046 38.1456C78.5607 38.2933 77.875 38.1983 77.3476 37.8608C77.1366 37.7342 76.9257 37.5127 76.7147 37.1962C76.5248 36.8587 76.3455 36.4684 76.1767 36.0254C76.008 35.5823 75.8708 35.1182 75.7654 34.633C75.6599 34.1266 75.6071 33.652 75.6071 33.2089C75.6071 32.8925 75.6282 32.4705 75.6704 31.9431C75.7126 31.4157 75.7654 30.8461 75.8286 30.2343C75.8919 29.6014 75.9658 28.9685 76.0502 28.3356C76.1346 27.6816 76.2189 27.0803 76.3033 26.5318C76.3877 25.9833 76.4616 25.5191 76.5248 25.1394C76.5881 24.7597 76.6409 24.5276 76.6831 24.4432C76.7253 24.1901 76.7991 23.9791 76.9046 23.8103C77.0312 23.6415 77.1366 23.515 77.221 23.4306C77.432 23.2618 77.7379 23.1352 78.1387 23.0508C78.5607 22.9664 78.9932 22.9137 79.4362 22.8926C79.9003 22.8715 80.3328 22.882 80.7337 22.9242C81.1345 22.9453 81.4298 22.9875 81.6197 23.0508H81.683C81.6408 20.4348 81.6408 18.4201 81.683 17.0066C81.7252 15.5931 81.8096 14.8336 81.9362 14.7281C82.0206 14.6648 82.2104 14.7176 82.5058 14.8864C82.8011 15.0551 83.107 15.2978 83.4235 15.6142C83.761 15.9307 84.0669 16.3104 84.3412 16.7534C84.6366 17.1754 84.8159 17.6079 84.8792 18.0509ZM80.0691 35.7722C80.3645 35.7089 80.6282 35.6351 80.8602 35.5507C81.1134 35.4452 81.3244 35.3503 81.4931 35.2659C81.683 35.1815 81.8412 35.076 81.9678 34.9494C81.9467 34.4009 81.9256 33.7891 81.9045 33.114C81.8834 32.4178 81.8623 31.7005 81.8412 30.9621C81.8201 30.2237 81.799 29.4748 81.7779 28.7153C81.7568 27.9347 81.7358 27.1858 81.7147 26.4685C81.7147 26.2364 81.6725 26.036 81.5881 25.8672C81.5248 25.6985 81.4404 25.5613 81.3349 25.4559C81.2716 25.4137 81.145 25.3609 80.9552 25.2976C80.7653 25.2132 80.5438 25.15 80.2906 25.1078C80.0586 25.0445 79.8265 25.0128 79.5944 25.0128C79.3835 25.0128 79.2358 25.055 79.1514 25.1394C79.1092 25.1605 79.067 25.3715 79.0248 25.7723C79.0037 26.1521 78.9721 26.6373 78.9299 27.228C78.9088 27.7976 78.8771 28.42 78.8349 29.0951C78.8138 29.7702 78.7927 30.4031 78.7717 30.9938C78.7506 31.5845 78.7295 32.0908 78.7084 32.5127C78.6873 32.9347 78.6767 33.1667 78.6767 33.2089C78.6767 33.5676 78.7189 33.9051 78.8033 34.2216C78.9088 34.538 79.0354 34.8228 79.183 35.076C79.3307 35.3081 79.4889 35.4979 79.6577 35.6456C79.8265 35.7722 79.9636 35.8144 80.0691 35.7722ZM93.4867 21.6901C93.6343 21.8167 93.7715 22.0593 93.8981 22.4179C94.0457 22.7766 94.1723 23.2091 94.2778 23.7154C94.3833 24.2217 94.4782 24.7702 94.5626 25.3609C94.647 25.9516 94.7208 26.5318 94.7841 27.1014C94.8474 27.671 94.8896 28.209 94.9107 28.7153C94.9529 29.2005 94.9845 29.6014 95.0056 29.9178C95.0267 30.2976 95.0373 30.6984 95.0373 31.1203C95.0584 31.5212 95.0584 31.9115 95.0373 32.2912C95.0373 32.6499 95.0162 32.9769 94.974 33.2722C94.9529 33.5676 94.9107 33.7891 94.8474 33.9368C94.7208 34.2532 94.4993 34.4747 94.1829 34.6013C93.8875 34.7068 93.55 34.7806 93.1702 34.8228C92.9803 34.8439 92.6533 34.8545 92.1892 34.8545C91.7462 34.8334 91.261 34.8123 90.7335 34.7912C90.2272 34.749 89.742 34.7068 89.2779 34.6646C88.8137 34.6224 88.4656 34.5802 88.2336 34.538C87.7694 34.4325 87.4319 34.2954 87.2209 34.1266C87.031 33.9579 86.8412 33.7153 86.6513 33.3988C86.588 33.2722 86.5353 32.9558 86.4931 32.4494C86.4509 31.922 86.4192 31.2997 86.3981 30.5824C86.3981 29.844 86.4087 29.0529 86.4298 28.209C86.4509 27.3651 86.4825 26.5634 86.5247 25.804C86.588 25.0445 86.6513 24.3799 86.7146 23.8103C86.799 23.2407 86.9045 22.861 87.031 22.6711C87.242 22.3757 87.6007 22.1015 88.107 21.8483C88.6344 21.5951 89.1091 21.3947 89.531 21.247C89.742 21.1838 90.0162 21.1416 90.3538 21.1205C90.7124 21.0783 91.0816 21.0783 91.4614 21.1205C91.8622 21.1416 92.242 21.2049 92.6006 21.3103C92.9592 21.3947 93.2546 21.5213 93.4867 21.6901ZM91.7145 31.5001C91.7567 31.4157 91.7989 31.1625 91.8411 30.7406C91.9044 30.2976 91.9466 29.7702 91.9677 29.1583C92.0099 28.5465 92.031 27.8925 92.031 27.1963C92.0521 26.5001 92.0626 25.8567 92.0626 25.266C92.0626 24.6753 92.0415 24.1795 91.9993 23.7787C91.9571 23.3567 91.9044 23.1141 91.8411 23.0508C91.7356 22.9664 91.5774 22.9348 91.3664 22.9559C91.1766 22.9559 90.9761 22.9875 90.7652 23.0508C90.5542 23.093 90.3643 23.1563 90.1956 23.2407C90.0268 23.304 89.9108 23.3673 89.8475 23.4306C89.5732 23.6626 89.4255 24.0424 89.4044 24.5698C89.4044 24.7175 89.3833 25.1394 89.3411 25.8356C89.32 26.5107 89.3095 27.2491 89.3095 28.0508C89.3095 28.8313 89.32 29.5592 89.3411 30.2343C89.3833 30.9094 89.4572 31.3208 89.5627 31.4684C89.6681 31.6161 89.8158 31.7322 90.0057 31.8165C90.2167 31.8798 90.4276 31.9115 90.6386 31.9115C90.8707 31.9115 91.0816 31.8798 91.2715 31.8165C91.4825 31.7322 91.6301 31.6267 91.7145 31.5001Z" fill="white"/>
<path d="M99.879 35.9621C99.4782 34.5908 99.0457 32.9769 98.5815 31.1203C98.1807 29.5381 97.7166 27.6077 97.1892 25.3293C96.6617 23.0508 96.1027 20.4348 95.512 17.4813C95.512 17.2703 95.628 17.0277 95.8601 16.7534C96.0921 16.4581 96.3664 16.1838 96.6828 15.9307C97.0204 15.6775 97.3685 15.456 97.7271 15.2661C98.0858 15.0762 98.3917 14.9813 98.6448 14.9813C98.7925 15.1501 98.9929 15.8674 99.2461 17.1332C99.3516 17.6817 99.4782 18.3673 99.6258 19.1901C99.7946 20.0129 99.9739 21.0361 100.164 22.2597C100.354 23.4622 100.565 24.8757 100.797 26.5001C101.029 28.1246 101.292 30.0128 101.588 32.1646C101.799 30.709 102.01 29.3377 102.221 28.0508C102.432 26.7428 102.622 25.5824 102.79 24.5698C103.001 23.4095 103.191 22.3335 103.36 21.342C103.444 20.7302 103.539 20.0867 103.645 19.4116C103.771 18.7154 103.898 18.0825 104.025 17.5129C104.151 16.9433 104.278 16.4686 104.404 16.0889C104.552 15.7091 104.71 15.5193 104.879 15.5193C105.027 15.4982 105.269 15.5193 105.607 15.5826C105.965 15.6458 106.314 15.7408 106.651 15.8674C106.989 15.9729 107.284 16.0994 107.537 16.2471C107.811 16.3948 107.949 16.5425 107.949 16.6901C107.949 16.7745 107.864 17.1754 107.695 17.8927C107.548 18.6099 107.326 19.5277 107.031 20.6458C106.757 21.7428 106.44 22.9875 106.081 24.3799C105.744 25.7723 105.375 27.1963 104.974 28.652C104.594 30.0866 104.214 31.4895 103.835 32.8608C103.455 34.2321 103.107 35.4557 102.79 36.5317C102.474 37.5865 102.2 38.4409 101.968 39.0949C101.757 39.7489 101.609 40.0759 101.525 40.0759C101.44 40.0759 101.219 39.7067 100.86 38.9684C100.501 38.2089 100.174 37.2068 99.879 35.9621ZM111.429 25.3926C111.472 25.4981 111.493 25.8356 111.493 26.4052C111.514 26.9537 111.514 27.6288 111.493 28.4305C111.493 29.2111 111.472 30.055 111.429 30.9621C111.387 31.8482 111.335 32.6921 111.271 33.4937C111.229 34.2743 111.176 34.9494 111.113 35.519C111.05 36.0675 110.986 36.3945 110.923 36.5C110.733 36.7954 110.448 36.9853 110.069 37.0696C109.689 37.1329 109.415 37.1435 109.246 37.1013C109.162 37.1013 109.067 36.8587 108.961 36.3734C108.877 35.8882 108.792 35.2764 108.708 34.538C108.624 33.7996 108.55 32.998 108.486 32.133C108.423 31.268 108.37 30.4453 108.328 29.6647C108.286 28.863 108.265 28.1668 108.265 27.5761C108.265 26.9854 108.286 26.6056 108.328 26.4369C108.392 26.1626 108.571 25.92 108.866 25.709C109.183 25.4981 109.51 25.3398 109.847 25.2343C110.206 25.1289 110.533 25.0867 110.828 25.1078C111.145 25.1078 111.345 25.2027 111.429 25.3926ZM111.588 20.266C111.672 20.4348 111.704 20.6669 111.683 20.9622C111.683 21.2576 111.651 21.5635 111.588 21.88C111.524 22.1964 111.44 22.5023 111.335 22.7977C111.229 23.093 111.124 23.3251 111.018 23.4939C110.807 23.7892 110.491 23.9791 110.069 24.0635C109.668 24.1268 109.373 24.1373 109.183 24.0951C109.035 24.074 108.887 23.9791 108.74 23.8103C108.592 23.6204 108.465 23.3989 108.36 23.1458C108.254 22.8715 108.181 22.5761 108.138 22.2597C108.096 21.9432 108.107 21.6479 108.17 21.3736C108.233 21.0994 108.434 20.8568 108.771 20.6458C109.109 20.4137 109.467 20.245 109.847 20.1395C110.227 20.0129 110.586 19.9601 110.923 19.9812C111.261 19.9812 111.482 20.0762 111.588 20.266ZM122.157 22.3546C122.284 22.5023 122.4 22.6605 122.505 22.8293C122.611 22.977 122.706 23.188 122.79 23.4622C122.874 23.7154 122.938 24.0529 122.98 24.4749C123.043 24.8968 123.075 25.4453 123.075 26.1204C123.075 27.1963 123.043 28.2828 122.98 29.3799C122.938 30.4558 122.896 31.4052 122.853 32.2279C122.832 32.9663 122.811 33.652 122.79 34.2849C122.769 34.9178 122.748 35.4768 122.727 35.9621C122.706 36.4262 122.674 36.7954 122.632 37.0696C122.611 37.3439 122.59 37.4916 122.569 37.5127C122.484 37.576 122.347 37.5549 122.157 37.4494C121.988 37.3228 121.799 37.1646 121.588 36.9747C121.398 36.7848 121.218 36.5844 121.05 36.3734C120.881 36.1625 120.775 35.9937 120.733 35.8671C120.733 35.7616 120.702 35.4557 120.638 34.9494C120.132 35.2448 119.573 35.4557 118.961 35.5823C118.349 35.6878 117.737 35.73 117.126 35.7089C116.535 35.6667 115.986 35.5507 115.48 35.3608C114.974 35.1709 114.594 34.9178 114.341 34.6013C114.235 34.4747 114.14 34.2849 114.056 34.0317C113.993 33.7785 113.929 33.4937 113.866 33.1773C113.824 32.8397 113.782 32.4916 113.74 32.133C113.697 31.7533 113.666 31.4052 113.645 31.0887C113.602 30.2659 113.708 29.5592 113.961 28.9685C114.214 28.3567 114.678 27.9031 115.353 27.6077C115.649 27.4812 116.039 27.4179 116.524 27.4179C117.031 27.3968 117.526 27.4179 118.012 27.4812C118.518 27.5233 118.972 27.5866 119.372 27.671C119.773 27.7343 120.026 27.7871 120.132 27.8292C120.048 26.7533 119.984 25.8251 119.942 25.0445C119.9 24.2428 119.815 23.7259 119.689 23.4939C119.583 23.3462 119.457 23.1985 119.309 23.0508C119.183 22.9453 119.014 22.8293 118.803 22.7027C118.592 22.5761 118.339 22.4812 118.043 22.4179C117.811 22.3757 117.6 22.4707 117.41 22.7027C117.242 22.9137 117.083 23.2934 116.936 23.842C116.809 24.3694 116.735 25.1816 116.714 26.2786C115.976 26.2997 115.406 26.2997 115.005 26.2786C114.626 26.2364 114.341 26.1942 114.151 26.1521C113.919 26.1099 113.782 26.0571 113.74 25.9938C113.697 25.9094 113.718 25.6035 113.803 25.0761C113.887 24.5276 114.003 23.9369 114.151 23.304C114.32 22.6711 114.51 22.0698 114.721 21.5002C114.953 20.9306 115.195 20.572 115.448 20.4243C115.955 20.1289 116.556 20.0234 117.252 20.1078C117.969 20.1922 118.666 20.3715 119.341 20.6458C120.016 20.92 120.617 21.226 121.145 21.5635C121.672 21.901 122.01 22.1648 122.157 22.3546ZM120.195 31.595C120.195 31.4895 120.206 31.3524 120.227 31.1836C120.248 30.9938 120.258 30.8039 120.258 30.614C120.258 30.4242 120.248 30.2448 120.227 30.0761C120.227 29.9073 120.206 29.7807 120.164 29.6963C120.1 29.5697 119.91 29.4642 119.594 29.3799C119.299 29.2955 118.961 29.2427 118.581 29.2216C118.202 29.1794 117.843 29.1689 117.505 29.19C117.168 29.19 116.936 29.2322 116.809 29.3166C116.64 29.4221 116.514 29.5697 116.429 29.7596C116.366 29.9495 116.324 30.2448 116.303 30.6457C116.303 30.8355 116.313 31.036 116.334 31.2469C116.356 31.4579 116.377 31.6689 116.398 31.8798C116.44 32.0697 116.482 32.2385 116.524 32.3862C116.588 32.5338 116.651 32.6288 116.714 32.671C116.862 32.7764 117.115 32.8714 117.474 32.9558C117.853 33.0191 118.233 33.0402 118.613 33.0191C118.993 32.9769 119.341 32.8503 119.657 32.6393C119.974 32.4283 120.153 32.0803 120.195 31.595ZM120.543 40.962C120.48 40.8354 120.427 40.6245 120.385 40.3291C120.322 40.0548 120.29 39.77 120.29 39.4747C120.269 39.2004 120.28 38.9578 120.322 38.7468C120.343 38.5148 120.406 38.3987 120.512 38.3987C120.617 38.3987 120.87 38.5042 121.271 38.7152C121.672 38.9051 122.104 39.1055 122.569 39.3165C123.033 39.5485 123.465 39.7278 123.866 39.8544C124.246 40.0021 124.478 40.0021 124.562 39.8544C124.668 39.6856 124.763 39.2637 124.847 38.5886C124.931 37.8924 125.005 37.0802 125.069 36.1519C125.132 35.2026 125.185 34.1899 125.227 33.114C125.29 32.017 125.332 30.9938 125.353 30.0444C125.396 29.074 125.427 28.2301 125.448 27.5128C125.469 26.7955 125.491 26.3314 125.512 26.1204C125.533 25.9305 125.638 25.709 125.828 25.4559C126.018 25.1816 126.239 24.9495 126.493 24.7597C126.746 24.5487 126.999 24.3905 127.252 24.285C127.505 24.1795 127.695 24.169 127.822 24.2533C127.906 24.3166 127.969 24.7386 128.012 25.5191C128.075 26.2786 128.107 27.228 128.107 28.3672C128.128 29.4853 128.128 30.709 128.107 32.0381C128.107 33.3672 128.085 34.6224 128.043 35.8038C128.022 36.9853 127.98 38.019 127.917 38.9051C127.874 39.7911 127.832 40.3502 127.79 40.5823C127.748 40.7088 127.611 40.9093 127.379 41.1835C127.147 41.4789 126.872 41.7742 126.556 42.0696C126.261 42.3649 125.955 42.6286 125.638 42.8607C125.343 43.0928 125.1 43.2405 124.91 43.3037C124.488 43.4303 124.045 43.4092 123.581 43.2405C123.117 43.0717 122.674 42.8396 122.252 42.5443C121.83 42.27 121.461 41.9746 121.145 41.6582C120.828 41.3417 120.628 41.1097 120.543 40.962ZM128.486 18.842C128.571 19.0108 128.602 19.2429 128.581 19.5382C128.581 19.8336 128.55 20.15 128.486 20.4876C128.423 20.804 128.339 21.1099 128.233 21.4053C128.128 21.7006 128.022 21.9327 127.917 22.1015C127.706 22.4179 127.389 22.6183 126.967 22.7027C126.545 22.766 126.229 22.7766 126.018 22.7344C125.87 22.7133 125.723 22.6078 125.575 22.4179C125.427 22.228 125.301 22.0065 125.195 21.7534C125.09 21.4791 125.016 21.1838 124.974 20.8673C124.931 20.5509 124.942 20.245 125.005 19.9496C125.069 19.6753 125.269 19.4222 125.607 19.1901C125.944 18.958 126.313 18.7893 126.714 18.6838C127.115 18.5572 127.484 18.5045 127.822 18.5256C128.159 18.5256 128.381 18.631 128.486 18.842ZM132.853 29.8545C133.191 29.728 133.571 29.5908 133.993 29.4432C134.436 29.2744 134.857 29.1267 135.258 29.0001C135.659 28.8524 136.018 28.7259 136.334 28.6204C136.651 28.5149 136.883 28.4305 137.03 28.3672C137.009 28.1352 136.978 27.8714 136.936 27.5761C136.914 27.2596 136.883 26.9643 136.841 26.69C136.798 26.3947 136.746 26.1415 136.682 25.9305C136.619 25.7196 136.556 25.593 136.492 25.5508C136.324 25.4875 136.039 25.4348 135.638 25.3926C135.258 25.3293 134.857 25.3398 134.436 25.4242C134.035 25.5086 133.666 25.6668 133.328 25.8989C132.99 26.131 132.801 26.5001 132.758 27.0065C132.716 27.344 132.706 27.766 132.727 28.2723C132.748 28.7786 132.79 29.306 132.853 29.8545ZM139.72 30.3609C139.699 30.4031 139.446 30.4874 138.961 30.614C138.476 30.7406 137.895 30.8777 137.22 31.0254C136.545 31.152 135.828 31.2891 135.068 31.4368C134.309 31.5634 133.655 31.6689 133.106 31.7533C133.212 32.5971 133.339 33.3566 133.486 34.0317C133.634 34.6857 133.76 35.0971 133.866 35.2659C133.971 35.4135 134.109 35.5507 134.277 35.6773C134.425 35.7827 134.604 35.8882 134.815 35.9937C135.047 36.0781 135.322 36.1414 135.638 36.1836C135.87 36.2469 136.092 36.1625 136.303 35.9304C136.471 35.7194 136.619 35.3503 136.746 34.8228C136.893 34.2954 136.967 33.4621 136.967 32.3229C137.621 32.2174 138.127 32.1541 138.486 32.133C138.866 32.1119 139.14 32.1119 139.309 32.133C139.52 32.1541 139.646 32.1857 139.689 32.2279C139.71 32.2912 139.71 32.4494 139.689 32.7026C139.668 32.9558 139.615 33.2722 139.53 33.652C139.467 34.0106 139.383 34.4114 139.277 34.8545C139.193 35.2764 139.087 35.6878 138.961 36.0886C138.834 36.4684 138.697 36.8165 138.549 37.1329C138.402 37.4283 138.244 37.6393 138.075 37.7658C137.568 38.1456 136.936 38.3355 136.176 38.3355C135.417 38.3144 134.668 38.2089 133.929 38.019C133.191 37.808 132.526 37.5654 131.936 37.2912C131.345 36.9958 130.976 36.7532 130.828 36.5633C130.723 36.4367 130.628 36.1203 130.543 35.614C130.459 35.0865 130.385 34.4536 130.322 33.7153C130.279 32.9769 130.248 32.1646 130.227 31.2786C130.206 30.3925 130.216 29.5275 130.258 28.6837C130.322 27.8398 130.406 27.0592 130.512 26.3419C130.638 25.6246 130.807 25.0445 131.018 24.6014C131.334 23.9685 131.851 23.4517 132.568 23.0508C133.286 22.65 134.045 22.3757 134.847 22.228C135.649 22.0804 136.408 22.0593 137.125 22.1648C137.864 22.2702 138.412 22.5023 138.771 22.861C138.982 23.0719 139.172 23.4939 139.341 24.1268C139.509 24.7386 139.615 25.4875 139.657 26.3736C139.657 26.458 139.668 26.7006 139.689 27.1014C139.71 27.5022 139.72 27.9347 139.72 28.3989C139.741 28.8419 139.752 29.2638 139.752 29.6647C139.752 30.0655 139.741 30.2976 139.72 30.3609ZM148.644 21.7534C148.813 21.8589 148.971 22.0698 149.119 22.3863C149.288 22.6816 149.435 23.0297 149.562 23.4306C149.71 23.8103 149.826 24.2217 149.91 24.6647C150.016 25.1078 150.1 25.5191 150.163 25.8989C150.248 26.2786 150.3 26.6056 150.321 26.8799C150.343 27.1331 150.343 27.2913 150.321 27.3546C150.279 27.439 150.153 27.5233 149.942 27.6077C149.752 27.6921 149.467 27.7871 149.087 27.8925C148.708 27.998 148.18 28.1141 147.505 28.2406C147.463 27.0803 147.378 26.2048 147.252 25.6141C147.125 25.0023 146.988 24.5698 146.84 24.3166C146.672 24.0213 146.492 23.8736 146.302 23.8736C146.113 23.958 145.944 24.0635 145.796 24.1901C145.648 24.2955 145.522 24.4116 145.416 24.5381C145.29 24.6858 145.174 24.8441 145.068 25.0128C145.026 25.0761 144.984 25.2238 144.942 25.4559C144.9 25.6879 144.857 26.036 144.815 26.5001C144.815 26.6478 144.805 26.9537 144.784 27.4179C144.784 27.882 144.773 28.42 144.752 29.0318C144.752 29.6436 144.741 30.287 144.72 30.9621C144.72 31.6372 144.71 32.2701 144.689 32.8608C144.689 33.4304 144.678 33.9157 144.657 34.3165C144.657 34.7174 144.646 34.9494 144.625 35.0127C144.583 35.1182 144.478 35.2659 144.309 35.4557C144.14 35.6456 143.95 35.8249 143.739 35.9937C143.528 36.1414 143.328 36.268 143.138 36.3734C142.948 36.4578 142.822 36.4473 142.758 36.3418C142.695 36.2785 142.632 36.0043 142.568 35.519C142.505 35.0338 142.431 34.4431 142.347 33.7469C142.284 33.0296 142.21 32.249 142.125 31.4052C142.041 30.5613 141.967 29.7491 141.904 28.9685C141.841 28.1879 141.788 27.4917 141.746 26.8799C141.703 26.247 141.672 25.7934 141.651 25.5191C141.63 25.1183 141.608 24.6753 141.587 24.1901C141.566 23.7048 141.545 23.2512 141.524 22.8293C141.524 22.3863 141.524 22.0065 141.524 21.6901C141.545 21.3525 141.587 21.1521 141.651 21.0888C141.693 21.0255 141.83 21.015 142.062 21.0572C142.315 21.0783 142.579 21.1416 142.853 21.247C143.149 21.3314 143.423 21.4475 143.676 21.5951C143.929 21.7428 144.098 21.88 144.182 22.0065C144.246 22.112 144.309 22.2702 144.372 22.4812C144.773 22.2702 145.153 22.0804 145.511 21.9116C145.891 21.7217 146.25 21.5846 146.587 21.5002C146.946 21.4158 147.294 21.3947 147.632 21.4369C147.969 21.458 148.307 21.5635 148.644 21.7534ZM158.233 21.6901C158.38 21.8167 158.518 22.0593 158.644 22.4179C158.792 22.7766 158.918 23.2091 159.024 23.7154C159.129 24.2217 159.224 24.7702 159.309 25.3609C159.393 25.9516 159.467 26.5318 159.53 27.1014C159.593 27.671 159.636 28.209 159.657 28.7153C159.699 29.2005 159.731 29.6014 159.752 29.9178C159.773 30.2976 159.783 30.6984 159.783 31.1203C159.804 31.5212 159.804 31.9115 159.783 32.2912C159.783 32.6499 159.762 32.9769 159.72 33.2722C159.699 33.5676 159.657 33.7891 159.593 33.9368C159.467 34.2532 159.245 34.4747 158.929 34.6013C158.634 34.7068 158.296 34.7806 157.916 34.8228C157.726 34.8439 157.399 34.8545 156.935 34.8545C156.492 34.8334 156.007 34.8123 155.48 34.7912C154.973 34.749 154.488 34.7068 154.024 34.6646C153.56 34.6224 153.212 34.5802 152.98 34.538C152.515 34.4325 152.178 34.2954 151.967 34.1266C151.777 33.9579 151.587 33.7153 151.397 33.3988C151.334 33.2722 151.281 32.9558 151.239 32.4494C151.197 31.922 151.165 31.2997 151.144 30.5824C151.144 29.844 151.155 29.0529 151.176 28.209C151.197 27.3651 151.229 26.5634 151.271 25.804C151.334 25.0445 151.397 24.3799 151.461 23.8103C151.545 23.2407 151.651 22.861 151.777 22.6711C151.988 22.3757 152.347 22.1015 152.853 21.8483C153.38 21.5951 153.855 21.3947 154.277 21.247C154.488 21.1838 154.762 21.1416 155.1 21.1205C155.458 21.0783 155.828 21.0783 156.207 21.1205C156.608 21.1416 156.988 21.2049 157.347 21.3103C157.705 21.3947 158.001 21.5213 158.233 21.6901ZM156.461 31.5001C156.503 31.4157 156.545 31.1625 156.587 30.7406C156.65 30.2976 156.693 29.7702 156.714 29.1583C156.756 28.5465 156.777 27.8925 156.777 27.1963C156.798 26.5001 156.809 25.8567 156.809 25.266C156.809 24.6753 156.788 24.1795 156.745 23.7787C156.703 23.3567 156.65 23.1141 156.587 23.0508C156.482 22.9664 156.323 22.9348 156.112 22.9559C155.923 22.9559 155.722 22.9875 155.511 23.0508C155.3 23.093 155.11 23.1563 154.942 23.2407C154.773 23.304 154.657 23.3673 154.594 23.4306C154.319 23.6626 154.172 24.0424 154.15 24.5698C154.15 24.7175 154.129 25.1394 154.087 25.8356C154.066 26.5107 154.056 27.2491 154.056 28.0508C154.056 28.8313 154.066 29.5592 154.087 30.2343C154.129 30.9094 154.203 31.3208 154.309 31.4684C154.414 31.6161 154.562 31.7322 154.752 31.8165C154.963 31.8798 155.174 31.9115 155.385 31.9115C155.617 31.9115 155.828 31.8798 156.018 31.8165C156.229 31.7322 156.376 31.6267 156.461 31.5001Z" fill="#2E65F3"/>
<path d="M20.2245 30.2685L19.3866 29.4094C19.2663 29.2861 19.1032 29.2168 18.9331 29.2168H17.9161L15.5389 26.7797C15.4186 26.6565 15.2555 26.5872 15.0854 26.5872H12.1446L11.5033 28.5594V29.8742C11.5033 30.288 11.6934 30.6777 12.0163 30.9261L13.5553 32.1094C13.8783 32.3577 14.0683 32.7474 14.0683 33.1613V36.7075C14.0683 36.9671 14.1434 37.2209 14.2838 37.4368L15.351 39.0779H15.9923V37.1057L17.9161 35.1334L18.4113 33.6107C18.4986 33.3422 18.7437 33.1612 19.0196 33.1612H19.3393C19.6336 33.1612 19.8901 32.9559 19.9615 32.6632L20.3933 30.8926C20.4478 30.6687 20.3837 30.4317 20.2245 30.2685Z" fill="white"/>
<path d="M17.9163 41.7071C26.0623 41.7071 32.6659 34.9376 32.6659 26.5868C32.6659 18.2361 26.0623 11.4666 17.9163 11.4666C9.77036 11.4666 3.16675 18.2361 3.16675 26.5868C3.16675 34.9376 9.77036 41.7071 17.9163 41.7071Z" fill="#2E65F3"/>
<path d="M25.0368 37.0143C16.8908 37.0143 10.2872 30.2447 10.2872 21.894C10.2872 18.1356 11.6279 14.7001 13.8418 12.0553C7.67847 13.8684 3.16675 19.6854 3.16675 26.5866C3.16675 34.9373 9.77039 41.7069 17.9163 41.7069C22.3959 41.7069 26.4061 39.657 29.1113 36.4253C27.8166 36.8061 26.4508 37.0143 25.0368 37.0143Z" fill="#2E65F3"/>
<path d="M11.6247 28.1851L11.5031 28.5591V29.874C11.5031 30.2878 11.6931 30.6774 12.0161 30.9258L13.5551 32.1091C13.8781 32.3574 14.0681 32.7472 14.0681 33.161V36.7073C14.0681 36.9669 14.1431 37.2206 14.2836 37.4366L15.3507 39.0776H15.992V37.1054L17.9137 35.1354C15.1576 33.5739 12.9433 31.1344 11.6247 28.1851Z" fill="#C7CFE2"/>
<path d="M13.8354 14.8734L12.786 15.4113V14.7539H11.3934C11.0532 14.7539 10.727 14.8925 10.4865 15.139L9.57953 16.0687L8.49368 14.9556C6.81483 16.3865 5.45309 18.1931 4.52576 20.2484L5.43951 23.0586C5.61413 23.5955 6.10411 23.9576 6.65623 23.9576H7.01436L7.65565 25.2724L9.57953 25.6669V24.6149C9.57953 23.8887 10.1538 23.3001 10.8621 23.3001H11.8791C12.0492 23.3001 12.2122 23.2308 12.3325 23.1075L16.6337 18.6982H17.9163V17.3834L16.8045 16.6236C16.4926 16.4104 16.5757 15.9191 16.9392 15.8259L18.5575 15.4113V14.7538H14.3292C14.1578 14.7538 13.9887 14.7948 13.8354 14.8734Z" fill="#E4EAF6"/>
<path d="M9.57957 25.6667V24.6149C9.57957 24.0712 9.90165 23.6047 10.3606 23.4046C10.3125 22.9078 10.2872 22.4042 10.2872 21.8945C10.2872 19.308 10.9341 16.8819 12.0517 14.7538H11.3934C11.0532 14.7538 10.727 14.8924 10.4865 15.1389L9.5795 16.0687L8.49932 14.9613C8.25562 15.1688 8.01571 15.3808 7.78559 15.6037C7.75193 15.6363 7.71987 15.6705 7.68649 15.7035C7.46407 15.9232 7.24921 16.151 7.0403 16.3846C6.98515 16.4463 6.92944 16.5075 6.87534 16.5702C6.64627 16.8352 6.4242 17.1068 6.21347 17.388C6.17855 17.4345 6.14677 17.4835 6.11248 17.5305C5.94248 17.7627 5.77997 18.0009 5.62292 18.2432C5.55433 18.3495 5.48679 18.4567 5.42066 18.5649C5.29013 18.7779 5.1659 18.9951 5.04573 19.215C4.98737 19.3219 4.92697 19.4272 4.87098 19.5359C4.74934 19.7716 4.63785 20.0136 4.52832 20.2565L5.43941 23.0585C5.61403 23.5954 6.10401 23.9575 6.65614 23.9575H7.01426L7.65555 25.2723L9.57957 25.6667Z" fill="#C7CFE2"/>
<path d="M17.9161 10.8507C9.45175 10.8507 2.56537 17.9102 2.56537 26.5873C2.56537 35.2644 9.45175 42.3239 17.9161 42.3239C26.3805 42.3239 33.2669 35.2644 33.2669 26.5873C33.2669 17.9102 26.3805 10.8507 17.9161 10.8507ZM28.818 21.5138C29.114 21.5138 29.3595 21.2942 29.4094 21.0054L29.6286 21.1179C29.8446 21.2286 30.0863 21.287 30.3277 21.287H31.0862C31.1797 21.5303 31.2664 21.7771 31.3472 22.0266H30.4033C30.1124 22.0266 29.821 22.0971 29.5609 22.2304L29.2148 22.4078C28.9966 22.5196 28.7351 22.5029 28.5321 22.3642L27.2275 21.4727C27.1288 21.4052 27.0126 21.3691 26.894 21.3691H26.7348L27.1801 20.6844C27.2025 20.65 27.2398 20.6296 27.2801 20.6296H28.2166V20.8975C28.2168 21.2378 28.4859 21.5138 28.818 21.5138ZM28.1294 16.5605L27.7515 16.9478C27.5167 17.1885 27.5167 17.5788 27.7515 17.8194C27.8689 17.9397 28.0228 17.9999 28.1766 17.9999C28.3304 17.9999 28.4843 17.9398 28.6017 17.8194L28.9249 17.4881C29.5486 18.2795 30.0931 19.139 30.5455 20.0544H30.3275C30.2718 20.0544 30.216 20.0408 30.1661 20.0153L29.2389 19.54C29.0563 19.4464 28.8518 19.397 28.6475 19.397H27.2801C26.8368 19.397 26.4254 19.6227 26.1795 20.0007L25.2898 21.3692H24.7299C24.4867 21.3692 24.289 21.1664 24.289 20.9173V19.8297C24.289 19.8121 24.3 19.7964 24.3165 19.7908L25.4895 19.3899C25.7819 19.29 26.0517 19.1191 26.2697 18.8957C26.6467 18.5092 26.8542 17.9955 26.8542 17.449V16.3413C26.8542 16.3305 26.8585 16.3199 26.8659 16.3122L27.3193 15.8474C27.3344 15.8319 27.3486 15.8157 27.3618 15.7989C27.6267 16.0428 27.8829 16.2967 28.1294 16.5605ZM8.47053 15.7988C8.48376 15.8155 8.49776 15.8316 8.51302 15.8472L9.15431 16.5046C9.26699 16.6202 9.41998 16.6851 9.57941 16.6851C9.73884 16.6851 9.89176 16.6202 10.0045 16.5046L10.9113 15.5748C11.04 15.443 11.2112 15.3703 11.3932 15.3703H12.1846V15.4114C12.1846 15.625 12.2925 15.8234 12.4697 15.9356C12.6469 16.048 12.8683 16.0582 13.0547 15.9626L14.104 15.4247C14.1735 15.3891 14.2513 15.3703 14.329 15.3703H16.4738C16.2392 15.5271 16.0762 15.7771 16.0259 16.0748C15.9552 16.4938 16.1256 16.9006 16.4708 17.1365L17.297 17.7012C17.3082 17.7089 17.3148 17.7216 17.3148 17.7354V18.041C17.3148 18.0637 17.2968 18.0821 17.2747 18.0821H16.9986C16.6025 18.0821 16.2301 18.2403 15.9499 18.5274L11.907 22.6719C11.8996 22.6796 11.8893 22.6839 11.8787 22.6839H10.8619C9.82318 22.6839 8.97815 23.5501 8.97815 24.615V24.9151L8.31166 24.7784C8.15279 24.7459 8.02017 24.642 7.94773 24.4935L7.55188 23.6821C7.45005 23.4732 7.24191 23.3413 7.01417 23.3413H6.65605C6.36231 23.3413 6.10252 23.1493 6.00972 22.8637L5.1726 20.2892C5.98011 18.5791 7.10613 17.0555 8.47053 15.7988ZM17.9161 41.0912C10.1147 41.0912 3.76782 34.5847 3.76782 26.5872C3.76782 25.0031 4.01767 23.478 4.47763 22.0499L4.869 23.2535C5.12438 24.039 5.83608 24.5681 6.64261 24.5739L6.87224 25.0448C7.11173 25.5359 7.55041 25.8793 8.07574 25.9871L10.3684 26.4571C10.4974 26.4836 10.6146 26.5478 10.7075 26.6432C10.894 26.8345 11.1132 26.9802 11.3521 27.0751L10.9329 28.3645C10.9125 28.4274 10.902 28.4931 10.902 28.5595V29.8743C10.902 30.4788 11.1837 31.0564 11.6555 31.4192L13.1946 32.6025C13.3652 32.7336 13.4671 32.9426 13.4671 33.1612V36.7075C13.4671 37.0901 13.5765 37.4606 13.7835 37.7788L14.7079 39.2003C14.9091 39.5096 15.2456 39.6942 15.6083 39.6942H15.8319C16.2517 39.6942 16.5934 39.344 16.5934 38.9136V37.7865C16.5934 37.5122 16.6976 37.2542 16.8868 37.0602L18.0735 35.8436C18.3143 35.5968 18.4984 35.2914 18.6061 34.9602L18.9816 33.8056C18.9871 33.7887 19.0024 33.7775 19.0196 33.7775H19.3393C19.9106 33.7775 20.4063 33.3807 20.5447 32.8126L20.9765 31.042C21.0817 30.6105 20.9565 30.1471 20.6496 29.8326L19.8116 28.9735C19.577 28.733 19.2649 28.6004 18.9331 28.6004H18.1651L15.9638 26.3439C15.7292 26.1034 15.4172 25.9708 15.0853 25.9708H12.1585C12.1491 25.9706 12.1398 25.9706 12.1304 25.9708H12.0271C11.8499 25.9708 11.6832 25.9 11.5579 25.7715C11.2965 25.5035 10.9668 25.3226 10.6043 25.2484L10.1807 25.1615V24.6151C10.1807 24.2299 10.4863 23.9165 10.8621 23.9165H11.5435V23.9577C11.5435 24.298 11.8126 24.574 12.1446 24.574C12.4767 24.574 12.7458 24.298 12.7458 23.9577V23.5544C12.7496 23.5506 12.7537 23.5473 12.7575 23.5435L16.8004 19.399C16.8534 19.3447 16.9239 19.3148 16.9988 19.3148H17.2749C17.96 19.3148 18.5174 18.7434 18.5174 18.0411V17.7355C18.5174 17.3086 18.3105 16.9124 17.9641 16.6757L17.4567 16.3288L18.4306 16.0791C18.8593 15.9694 19.1587 15.5763 19.1587 15.123C19.1587 14.5797 18.7275 14.1377 18.1976 14.1377H14.3292C14.0657 14.1377 13.8019 14.2015 13.5664 14.3222L13.1691 14.5258C12.9854 14.2894 12.7022 14.1376 12.3851 14.1376H11.3933C10.8901 14.1376 10.417 14.3384 10.0612 14.7033L9.57941 15.1972L9.39968 15.013C11.7707 13.1751 14.7212 12.0833 17.9161 12.0833C21.1111 12.0833 24.0616 13.1751 26.4325 15.013L26.0155 15.4405C25.7807 15.6811 25.6515 16.0009 25.6515 16.3411V17.4488C25.6515 17.666 25.569 17.8703 25.4192 18.0239C25.3325 18.1127 25.2254 18.1806 25.1091 18.2204L23.936 18.6212C23.4279 18.7949 23.0864 19.2805 23.0864 19.8297V20.9171C23.0864 21.2276 23.1702 21.5179 23.3138 21.768C23.0699 21.9363 22.856 22.153 22.6877 22.412L22.1202 23.2844C21.9132 23.6027 21.8038 23.9731 21.8038 24.3556V25.5316C21.8038 25.9142 21.9132 26.2846 22.1202 26.6029L22.8066 27.6583C23.1568 28.1968 23.7428 28.5183 24.374 28.5183H25.9696C26.2634 28.5183 26.5231 28.7101 26.6159 28.9959L26.7592 29.4365C26.8752 29.7932 26.9341 30.1648 26.9341 30.5409V31.0062C26.9341 31.6209 27.0175 32.2323 27.1824 32.8235L28.2133 36.5227C25.6314 39.3333 21.9705 41.0912 17.9161 41.0912ZM13.9161 31.6164L12.377 30.4331C12.2064 30.3019 12.1045 30.093 12.1045 29.8743V28.6595L12.5779 27.2037H15.0854C15.0959 27.2037 15.1063 27.208 15.1137 27.2156L17.491 29.6527C17.6037 29.7684 17.7567 29.8332 17.9161 29.8332H18.9331C18.9436 29.8332 18.954 29.8376 18.9614 29.8452L19.7994 30.7043C19.8094 30.7145 19.8134 30.7294 19.81 30.7433L19.3782 32.5139C19.3737 32.5322 19.3577 32.545 19.3393 32.545H19.0196C18.484 32.545 18.0103 32.8949 17.8408 33.416L17.4654 34.5706C17.4164 34.7212 17.3327 34.86 17.2233 34.9721L16.0366 36.1887C15.6202 36.6155 15.3909 37.183 15.3909 37.7866V38.0286L14.7839 37.0952C14.709 36.9802 14.6695 36.8461 14.6695 36.7077V33.1615C14.6696 32.5566 14.3879 31.979 13.9161 31.6164ZM29.1494 35.3941L28.3386 32.485C28.2046 32.004 28.1366 31.5064 28.1366 31.0063V30.541C28.1366 30.0322 28.057 29.5295 27.9001 29.0468L27.7568 28.6062C27.5 27.8164 26.7818 27.2857 25.9697 27.2857H24.3741C24.1458 27.2857 23.9339 27.1694 23.8072 26.9747L23.1208 25.9192C23.0459 25.804 23.0063 25.6701 23.0063 25.5318V24.3558C23.0063 24.2174 23.0459 24.0834 23.1208 23.9683L23.6883 23.0958C23.8894 22.7865 24.226 22.6019 24.5886 22.6019H26.7121L27.8652 23.3899C28.4262 23.7733 29.1495 23.8195 29.7526 23.5103L30.0986 23.3329C30.1927 23.2847 30.2981 23.2592 30.4033 23.2592H31.6881C31.9339 24.3283 32.0645 25.4424 32.0645 26.5873C32.0645 29.8969 30.9766 32.9507 29.1494 35.3941Z" fill="black"/>
<path d="M5.31112 14.5416C5.42765 14.6574 5.57966 14.7152 5.73174 14.7152C5.88382 14.7152 6.0357 14.6573 6.15236 14.5416C6.15691 14.5371 6.16139 14.5325 6.1658 14.5278C6.39172 14.2888 6.39172 13.9045 6.1658 13.6656C6.16363 13.6632 6.16139 13.6609 6.15915 13.6586C5.92435 13.4179 5.53921 13.4179 5.3044 13.6586C5.06959 13.8993 5.06959 14.2941 5.3044 14.5349C5.3065 14.5371 5.30888 14.5394 5.31112 14.5416Z" fill="white"/>
<path d="M6.33291 11.467C6.33291 11.1266 6.06374 10.8507 5.73173 10.8507C3.98583 10.8507 2.56537 12.3069 2.56537 14.0966C2.56537 14.437 2.83454 14.7129 3.16656 14.7129C3.49858 14.7129 3.76775 14.437 3.76775 14.0966C3.76775 12.9865 4.64881 12.0834 5.73166 12.0834C6.06374 12.0833 6.33291 11.8074 6.33291 11.467Z" fill="white"/>
<path d="M6.33271 8.83719C6.33271 8.49682 6.06354 8.22089 5.73152 8.22089C2.57119 8.22089 0 10.8567 0 14.0964C0 14.4368 0.26917 14.7127 0.601189 14.7127C0.933208 14.7127 1.20238 14.4368 1.20238 14.0964C1.20238 11.5363 3.2341 9.45349 5.73145 9.45349C6.06354 9.45349 6.33271 9.17755 6.33271 8.83719Z" fill="white"/>
<path d="M30.8411 37.1259C30.9585 37.2462 31.1135 37.3064 31.2685 37.3064C31.4235 37.3064 31.5785 37.2462 31.6959 37.1259C31.9307 36.8851 31.9307 36.4903 31.6959 36.2496C31.6937 36.2473 31.6915 36.245 31.6891 36.2428C31.456 36.0114 31.0811 36.0114 30.848 36.2428C30.8435 36.2473 30.839 36.2519 30.8346 36.2566C30.6087 36.4956 30.6087 36.8799 30.8346 37.1188C30.8366 37.1212 30.8389 37.1235 30.8411 37.1259Z" fill="white"/>
<path d="M33.8336 36.0713C33.5016 36.0713 33.2325 36.3472 33.2325 36.6876C33.2325 37.7977 32.3514 38.7009 31.2685 38.7009C30.9365 38.7009 30.6674 38.9768 30.6674 39.3172C30.6674 39.6575 30.9365 39.9335 31.2685 39.9335C33.0144 39.9335 34.4349 38.4773 34.4349 36.6875C34.4348 36.3472 34.1657 36.0713 33.8336 36.0713Z" fill="white"/>
<path d="M36.3988 36.0713C36.0668 36.0713 35.7976 36.3472 35.7976 36.6876C35.7976 39.2477 33.7659 41.3305 31.2685 41.3305C30.9365 41.3305 30.6674 41.6064 30.6674 41.9468C30.6674 42.2872 30.9365 42.5631 31.2685 42.5631C34.4288 42.5632 37 39.9274 37 36.6877C37 36.3472 36.7308 36.0713 36.3988 36.0713Z" fill="white"/>
<path d="M13.4275 17.9996C13.5179 17.9996 13.6095 17.9786 13.6959 17.9344L14.9785 17.277C15.2755 17.1248 15.3959 16.7546 15.2474 16.4501C15.0989 16.1457 14.7378 16.0222 14.4408 16.1745L13.1582 16.8319C12.8612 16.9841 12.7408 17.3543 12.8893 17.6588C12.9946 17.8747 13.2069 17.9996 13.4275 17.9996Z" fill="black"/>
<path d="M24.3289 17.3423C24.6609 17.3423 24.93 17.0663 24.93 16.726V16.0686C24.93 15.7282 24.6609 15.4523 24.3289 15.4523C23.9968 15.4523 23.7277 15.7282 23.7277 16.0686V16.726C23.7276 17.0663 23.9967 17.3423 24.3289 17.3423Z" fill="black"/>
<path d="M32.1554 22.6427H30.4034C30.2043 22.6427 30.0079 22.6902 29.8298 22.7815L29.4838 22.9589C29.0722 23.1699 28.5817 23.1387 28.1988 22.8769L26.8941 21.9853H25.6116L26.8941 20.0131H28.818L30.1006 20.6705H31.4929C30.5665 18.4396 29.1321 16.484 27.3388 14.9556L26.4408 15.8762C26.3205 15.9995 26.2529 16.1667 26.2529 16.3411V17.4487C26.2529 17.8279 26.106 18.1916 25.8444 18.4597C25.6913 18.6166 25.5047 18.7349 25.2992 18.805L24.1262 19.2058C23.8643 19.2953 23.6877 19.5465 23.6877 19.8295V21.9853L22.6205 23.6262C22.4801 23.8422 22.405 24.096 22.405 24.3555V25.5315C22.405 25.7911 22.4801 26.0449 22.6205 26.2608L23.307 27.3163C23.5448 27.6821 23.9453 27.9018 24.3741 27.9018H25.9697C26.5218 27.9018 27.0119 28.264 27.1864 28.8008L27.4695 29.6715C27.5131 29.8055 27.5353 29.946 27.5353 30.0873V31.8463L29.0484 36.4997C31.2996 33.8451 32.6656 30.3807 32.6656 26.5871C32.6656 25.222 32.4862 23.9005 32.1554 22.6427Z" fill="#E4EAF6"/>
<path d="M14.5 28.8082L17 31.8082C14.8333 31.1416 11.3 29.8082 14.5 29.8082C17.7 29.8082 15.8333 30.1416 14.5 30.3082L17.5 30.8082H18" stroke="black"/>
<path d="M15.5 32.3082C15.5 33.5082 15.8334 33.1416 16 32.8082C15.5 31.9749 14.1496 31.3018 15.5 31.8082C19.1421 33.174 15.7373 33.7108 15.8537 33.7959M16 33.8083C15.9106 33.8083 15.8651 33.8042 15.8537 33.7959M14 28.8082L13 29.3082C13 29.8082 13.1 30.3082 13.5 28.3082C14 25.8082 18 31.8082 17 33.8083C16.2 35.4083 17 33.1416 17.5 31.8082C17.3485 31.3537 17.3072 30.6513 18.2022 31.1281M14 28.8082V28.3082M14 28.8082L16.5 29.3082H17L17.5 30.3082H18H19L19.5 30.8082L18.2022 31.1281M18.2022 31.1281C18.2918 31.1758 18.3908 31.2354 18.5 31.3082C20 32.3082 19 30.8082 18 31.8082V32.3082M18.5 32.3082H19H19.5L18 32.8082L17.5 33.3082V33.8082V34.3082L15.8537 33.7959M15 32.8082L14.5 32.3082L14 31.8082L13.5 31.3082L13 30.8082L12.5 29.3082H12L12.5 27.3082H14H15L16.5 28.8082L13 27.8082V28.8082L16.5 32.8082L14.5 31.3082L15.75 30.5582L17 29.8082" stroke="#C7CFE2"/>
<path d="M16 31.3082C16.5 31.6416 17.3 32.1082 16.5 31.3082C15.7 30.5082 15.1667 29.9749 15 29.8082L14.5 29.3082H14V30.8082L13.5 30.3082V29.8082L17 30.3082" stroke="#C7CFE2"/>
</g>
<defs>
<clipPath id="clip0_23_2">
<rect width="160" height="60" fill="white"/>
</clipPath>
</defs>
</svg>
